# Blender 4.3.2
# www.blender.org
mtllib bat.mtl
o Cube
v 0.817771 0.817771 -0.817771
v 0.817771 -0.817771 -0.817771
v 0.817771 0.817771 0.817771
v 0.817771 -0.817771 0.817771
v -0.817771 0.817771 -0.817771
v -0.817771 -0.817771 -0.817771
v -0.817771 0.817771 0.817771
v -0.817771 -0.817771 0.817771
v -1.001561 -1.001561 0.000000
v 0.000000 -1.001561 -1.001561
v 1.001561 0.000000 -1.001561
v -1.001561 0.000000 1.001561
v 1.001561 0.000000 1.001561
v -1.001561 0.000000 -1.001561
v 0.000000 1.001561 1.001561
v 1.001561 1.001561 0.000000
v 0.000000 -1.001561 1.001561
v -1.001561 1.001561 0.000000
v 0.000000 1.001561 -1.001561
v 1.001561 -1.001561 0.000000
v 0.000000 0.000000 -1.416422
v 1.416422 0.000000 0.000000
v 0.000000 -1.416422 0.000000
v -1.416422 0.000000 0.000000
v 0.000000 0.000000 1.416422
v 0.000000 1.416422 0.000000
vn -0.3251 0.8881 0.3251
vn -0.3251 0.3251 0.8881
vn -0.8881 0.3251 -0.3251
vn 0.3251 -0.8881 0.3251
vn 0.8881 0.3251 0.3251
vn 0.3251 0.3251 -0.8881
vn 0.3251 -0.3251 -0.8881
vn -0.3251 -0.3251 -0.8881
vn -0.3251 0.3251 -0.8881
vn 0.8881 -0.3251 0.3251
vn 0.8881 -0.3251 -0.3251
vn 0.8881 0.3251 -0.3251
vn -0.3251 -0.8881 0.3251
vn -0.3251 -0.8881 -0.3251
vn 0.3251 -0.8881 -0.3251
vn -0.8881 -0.3251 -0.3251
vn -0.8881 -0.3251 0.3251
vn -0.8881 0.3251 0.3251
vn -0.3251 -0.3251 0.8881
vn 0.3251 -0.3251 0.8881
vn 0.3251 0.3251 0.8881
vn 0.3251 0.8881 0.3251
vn 0.3251 0.8881 -0.3251
vn -0.3251 0.8881 -0.3251
vt 0.750000 0.625000
vt 0.875000 0.625000
vt 0.875000 0.750000
vt 0.750000 0.750000
vt 0.500000 0.875000
vt 0.625000 0.875000
vt 0.625000 1.000000
vt 0.500000 1.000000
vt 0.500000 0.125000
vt 0.625000 0.125000
vt 0.625000 0.250000
vt 0.500000 0.250000
vt 0.250000 0.625000
vt 0.375000 0.625000
vt 0.375000 0.750000
vt 0.250000 0.750000
vt 0.500000 0.625000
vt 0.625000 0.625000
vt 0.625000 0.750000
vt 0.500000 0.750000
vt 0.500000 0.375000
vt 0.625000 0.375000
vt 0.625000 0.500000
vt 0.500000 0.500000
vt 0.375000 0.375000
vt 0.375000 0.500000
vt 0.375000 0.250000
vt 0.125000 0.625000
vt 0.125000 0.750000
vt 0.125000 0.500000
vt 0.250000 0.500000
vt 0.375000 0.125000
vt 0.375000 0.000000
vt 0.500000 0.000000
vt 0.625000 0.000000
vt 0.375000 0.875000
vt 0.375000 1.000000
vt 0.750000 0.500000
vt 0.875000 0.500000
s 0
usemtl Material
f 26/1/1 18/2/1 7/3/1 15/4/1
f 25/5/2 15/6/2 7/7/2 12/8/2
f 24/9/3 18/10/3 5/11/3 14/12/3
f 23/13/4 20/14/4 4/15/4 17/16/4
f 22/17/5 16/18/5 3/19/5 13/20/5
f 21/21/6 19/22/6 1/23/6 11/24/6
f 10/25/7 21/21/7 11/24/7 2/26/7
f 6/27/8 14/12/8 21/21/8 10/25/8
f 14/12/9 5/11/9 19/22/9 21/21/9
f 20/14/10 22/17/10 13/20/10 4/15/10
f 2/26/11 11/24/11 22/17/11 20/14/11
f 11/24/12 1/23/12 16/18/12 22/17/12
f 9/28/13 23/13/13 17/16/13 8/29/13
f 6/30/14 10/31/14 23/13/14 9/28/14
f 10/31/15 2/26/15 20/14/15 23/13/15
f 9/32/16 24/9/16 14/12/16 6/27/16
f 8/33/17 12/34/17 24/9/17 9/32/17
f 12/34/18 7/35/18 18/10/18 24/9/18
f 17/36/19 25/5/19 12/8/19 8/37/19
f 4/15/20 13/20/20 25/5/20 17/36/20
f 13/20/21 3/19/21 15/6/21 25/5/21
f 16/18/22 26/1/22 15/4/22 3/19/22
f 1/23/23 19/38/23 26/1/23 16/18/23
f 19/38/24 5/39/24 18/2/24 26/1/24
o Plane
v 0.000000 1.724054 3.129681
v 0.000000 2.703225 1.385770
v -0.000000 0.959315 0.406599
v -0.000000 0.471750 1.079059
v 0.000000 0.980637 2.816810
v -0.000000 1.073650 1.518780
v -0.000000 0.316337 1.877707
v 0.000000 1.414456 2.204560
v 0.000000 1.636565 2.743752
v 0.000000 1.724054 -3.129681
v 0.000000 2.703225 -1.385770
v -0.000000 0.959315 -0.406599
v -0.000000 0.471750 -1.079059
v 0.000000 0.980637 -2.816810
v -0.000000 1.073650 -1.518780
v -0.000000 0.316337 -1.877707
v 0.000000 1.414456 -2.204560
v 0.000000 1.636565 -2.743752
vn 1.0000 -0.0000 -0.0000
vt 0.121414 0.157825
vt 0.354227 0.000000
vt 0.335283 0.353198
vt 0.840531 0.279372
vt 0.644234 0.576118
vt 1.000000 0.634499
vt 1.000000 1.000000
vt 0.000000 1.000000
vt 0.000000 0.000000
s 0
f 35/40/25 31/41/25 34/42/25 33/43/25 32/44/25 30/45/25 29/46/25 28/47/25 27/48/25
f 44/40/25 36/48/25 37/47/25 38/46/25 39/45/25 41/44/25 42/43/25 43/42/25 40/41/25
