# Blender 4.3.2
# www.blender.org
mtllib Imp.mtl
o Cube
v 0.817771 0.817771 -0.817771
v 0.817771 -0.817771 -0.817771
v 0.817771 0.817771 0.817771
v 0.817771 -0.817771 0.817771
v -0.817771 0.817771 -0.817771
v -0.817771 -0.817771 -0.817771
v -0.817771 0.817771 0.817771
v -0.817771 -0.817771 0.817771
v -1.001561 -1.001561 0.000000
v 0.000000 -1.001561 -1.001561
v 1.001561 0.000000 -1.001561
v -1.001561 0.000000 1.001561
v 1.001561 0.000000 1.001561
v -1.001561 0.000000 -1.001561
v 0.000000 1.001561 1.001561
v 1.001561 1.001561 0.000000
v 0.000000 -1.001561 1.001561
v -1.001561 1.001561 0.000000
v 0.000000 1.001561 -1.001561
v 1.001561 -1.001561 0.000000
v 0.000000 0.000000 -1.416422
v 1.416422 0.000000 0.000000
v 0.000000 -1.416422 0.000000
v -1.416422 0.000000 0.000000
v 0.000000 0.000000 1.416422
v 0.000000 1.416422 0.000000
vn -0.3251 0.8881 0.3251
vn -0.3251 0.3251 0.8881
vn -0.8881 0.3251 -0.3251
vn 0.3251 -0.8881 0.3251
vn 0.8881 0.3251 0.3251
vn 0.3251 0.3251 -0.8881
vn 0.3251 -0.3251 -0.8881
vn -0.3251 -0.3251 -0.8881
vn -0.3251 0.3251 -0.8881
vn 0.8881 -0.3251 0.3251
vn 0.8881 -0.3251 -0.3251
vn 0.8881 0.3251 -0.3251
vn -0.3251 -0.8881 0.3251
vn -0.3251 -0.8881 -0.3251
vn 0.3251 -0.8881 -0.3251
vn -0.8881 -0.3251 -0.3251
vn -0.8881 -0.3251 0.3251
vn -0.8881 0.3251 0.3251
vn -0.3251 -0.3251 0.8881
vn 0.3251 -0.3251 0.8881
vn 0.3251 0.3251 0.8881
vn 0.3251 0.8881 0.3251
vn 0.3251 0.8881 -0.3251
vn -0.3251 0.8881 -0.3251
vt 0.750000 0.625000
vt 0.875000 0.625000
vt 0.875000 0.750000
vt 0.750000 0.750000
vt 0.500000 0.875000
vt 0.625000 0.875000
vt 0.625000 1.000000
vt 0.500000 1.000000
vt 0.500000 0.125000
vt 0.625000 0.125000
vt 0.625000 0.250000
vt 0.500000 0.250000
vt 0.250000 0.625000
vt 0.375000 0.625000
vt 0.375000 0.750000
vt 0.250000 0.750000
vt 0.500000 0.625000
vt 0.625000 0.625000
vt 0.625000 0.750000
vt 0.500000 0.750000
vt 0.500000 0.375000
vt 0.625000 0.375000
vt 0.625000 0.500000
vt 0.500000 0.500000
vt 0.375000 0.375000
vt 0.375000 0.500000
vt 0.375000 0.250000
vt 0.125000 0.625000
vt 0.125000 0.750000
vt 0.125000 0.500000
vt 0.250000 0.500000
vt 0.375000 0.125000
vt 0.375000 0.000000
vt 0.500000 0.000000
vt 0.625000 0.000000
vt 0.375000 0.875000
vt 0.375000 1.000000
vt 0.750000 0.500000
vt 0.875000 0.500000
s 0
usemtl Material
f 26/1/1 18/2/1 7/3/1 15/4/1
f 25/5/2 15/6/2 7/7/2 12/8/2
f 24/9/3 18/10/3 5/11/3 14/12/3
f 23/13/4 20/14/4 4/15/4 17/16/4
f 22/17/5 16/18/5 3/19/5 13/20/5
f 21/21/6 19/22/6 1/23/6 11/24/6
f 10/25/7 21/21/7 11/24/7 2/26/7
f 6/27/8 14/12/8 21/21/8 10/25/8
f 14/12/9 5/11/9 19/22/9 21/21/9
f 20/14/10 22/17/10 13/20/10 4/15/10
f 2/26/11 11/24/11 22/17/11 20/14/11
f 11/24/12 1/23/12 16/18/12 22/17/12
f 9/28/13 23/13/13 17/16/13 8/29/13
f 6/30/14 10/31/14 23/13/14 9/28/14
f 10/31/15 2/26/15 20/14/15 23/13/15
f 9/32/16 24/9/16 14/12/16 6/27/16
f 8/33/17 12/34/17 24/9/17 9/32/17
f 12/34/18 7/35/18 18/10/18 24/9/18
f 17/36/19 25/5/19 12/8/19 8/37/19
f 4/15/20 13/20/20 25/5/20 17/36/20
f 13/20/21 3/19/21 15/6/21 25/5/21
f 16/18/22 26/1/22 15/4/22 3/19/22
f 1/23/23 19/38/23 26/1/23 16/18/23
f 19/38/24 5/39/24 18/2/24 26/1/24
o Cone
v 0.000000 0.577911 -1.075124
v 0.462487 1.042522 -0.422577
v -0.462487 1.042522 -0.422577
v 0.000000 1.757715 -1.259574
v 0.000000 0.577911 1.075124
v 0.462487 1.042522 0.422577
v -0.462487 1.042522 0.422577
v 0.000000 1.757715 1.259574
vn 0.8402 -0.0838 -0.5358
vn -0.0000 -0.8146 0.5800
vn -0.0000 0.7603 0.6496
vn -0.8402 -0.0838 -0.5358
vn 0.8402 -0.0838 0.5358
vn -0.0000 -0.8146 -0.5800
vn -0.0000 0.7603 -0.6496
vn -0.8402 -0.0838 0.5358
vt 0.250000 0.490000
vt 0.250000 0.250000
vt 0.457846 0.130000
vt 0.750000 0.490000
vt 0.957846 0.130000
vt 0.542154 0.130000
vt 0.042154 0.130000
s 0
f 27/40/25 30/41/25 28/42/25
f 27/43/26 28/44/26 29/45/26
f 28/42/27 30/41/27 29/46/27
f 29/46/28 30/41/28 27/40/28
f 31/40/29 32/42/29 34/41/29
f 31/43/30 33/45/30 32/44/30
f 32/42/31 33/46/31 34/41/31
f 33/46/32 31/40/32 34/41/32
o Cylinder
v 0.000000 -1.551553 0.199020
v 0.000000 -0.831553 0.199020
v 0.340000 -1.551553 0.539020
v 0.340000 -0.831553 0.539020
v 0.000000 -1.551553 0.879020
v 0.000000 -0.831553 0.879020
v -0.340000 -1.551553 0.539020
v -0.340000 -0.831553 0.539020
v 0.000000 -1.551553 -0.199020
v 0.000000 -0.831553 -0.199020
v 0.340000 -1.551553 -0.539020
v 0.340000 -0.831553 -0.539020
v 0.000000 -1.551553 -0.879020
v 0.000000 -0.831553 -0.879020
v -0.340000 -1.551553 -0.539020
v -0.340000 -0.831553 -0.539020
vn 0.7071 -0.0000 -0.7071
vn 0.7071 -0.0000 0.7071
vn -0.0000 1.0000 -0.0000
vn -0.7071 -0.0000 0.7071
vn -0.7071 -0.0000 -0.7071
vn -0.0000 -1.0000 -0.0000
vt 1.000000 0.500000
vt 1.000000 1.000000
vt 0.750000 1.000000
vt 0.750000 0.500000
vt 0.500000 1.000000
vt 0.500000 0.500000
vt 0.490000 0.250000
vt 0.250000 0.490000
vt 0.010000 0.250000
vt 0.250000 0.010000
vt 0.250000 1.000000
vt 0.250000 0.500000
vt 0.000000 1.000000
vt 0.000000 0.500000
vt 0.750000 0.490000
vt 0.990000 0.250000
vt 0.750000 0.010000
vt 0.510000 0.250000
s 0
f 35/47/33 36/48/33 38/49/33 37/50/33
f 37/50/34 38/49/34 40/51/34 39/52/34
f 38/53/35 36/54/35 42/55/35 40/56/35
f 39/52/36 40/51/36 42/57/36 41/58/36
f 41/58/37 42/57/37 36/59/37 35/60/37
f 35/61/38 37/62/38 39/63/38 41/64/38
f 43/47/34 45/50/34 46/49/34 44/48/34
f 45/50/33 47/52/33 48/51/33 46/49/33
f 46/53/35 48/56/35 50/55/35 44/54/35
f 47/52/37 49/58/37 50/57/37 48/51/37
f 49/58/36 43/60/36 44/59/36 50/57/36
f 43/61/38 49/64/38 47/63/38 45/62/38
o Torus
v 1.052089 -0.216506 -1.918246
v 0.927090 -0.216506 -1.701740
v 0.864590 0.000000 -1.593487
v 0.927090 0.216506 -1.701740
v 1.052089 0.216506 -1.918246
v 1.114589 0.000000 -2.026500
v 1.114589 0.000000 -2.026500
v 1.052089 0.216506 -1.918246
v 0.927090 0.216506 -1.701740
v 0.864590 0.000000 -1.593487
v 0.927090 -0.216506 -1.701740
v 1.052089 -0.216506 -1.918246
v -0.149305 0.000000 -2.026500
v -0.086805 0.216506 -1.918246
v 0.038195 0.216506 -1.701740
v 0.100695 0.000000 -1.593487
v 0.038195 -0.216506 -1.701740
v -0.086805 -0.216506 -1.918246
v -1.319305 0.000000 -0.000000
v -1.194305 0.216506 -0.000000
v -0.944305 0.216506 -0.000000
v -0.819305 0.000000 -0.000000
v -0.944305 -0.216506 -0.000000
v -1.194305 -0.216506 -0.000000
v -0.149305 0.000000 2.026500
v -0.086805 0.216506 1.918246
v 0.038195 0.216506 1.701740
v 0.100695 0.000000 1.593487
v 0.038195 -0.216506 1.701740
v -0.086805 -0.216506 1.918246
v 1.114589 0.000000 2.026500
v 1.052089 0.216506 1.918246
v 0.927090 0.216506 1.701740
v 0.864590 0.000000 1.593487
v 0.927090 -0.216506 1.701740
v 1.052089 -0.216506 1.918246
v 1.114589 0.000000 2.026500
v 1.052089 0.216506 1.918246
v 0.927090 0.216506 1.701740
v 0.864590 0.000000 1.593487
v 0.927090 -0.216506 1.701740
v 1.052089 -0.216506 1.918246
vn -0.0000 1.0000 -0.0000
vn -0.0000 0.4472 -0.8944
vn -0.0000 0.4472 0.8944
vn -0.0000 -0.4472 0.8944
vn -0.0000 -1.0000 -0.0000
vn -0.0000 -0.4472 -0.8944
vn -0.7746 0.4472 -0.4472
vn 0.7746 0.4472 0.4472
vn 0.7746 -0.4472 0.4472
vn -0.7746 -0.4472 -0.4472
vn -0.7746 0.4472 0.4472
vn 0.7746 0.4472 -0.4472
vn 0.7746 -0.4472 -0.4472
vn -0.7746 -0.4472 0.4472
vn 0.8660 -0.0000 -0.5000
vn 0.8660 -0.0000 0.5000
vt 0.666667 0.666667
vt 0.666667 0.833333
vt 0.666667 -0.000000
vt 0.666667 0.166667
vt 0.666667 0.333333
vt 0.666667 0.500000
vt 0.333333 0.833333
vt 0.333333 0.666667
vt 0.666667 1.000000
vt 0.833333 0.500000
vt 0.833333 0.666667
vt 0.833333 0.833333
vt 0.833333 1.000000
vt 0.833333 -0.000000
vt 0.833333 0.166667
vt 0.833333 0.333333
vt 1.000000 0.500000
vt 1.000000 0.666667
vt 1.000000 0.833333
vt 1.000000 1.000000
vt 1.000000 -0.000000
vt 1.000000 0.166667
vt 1.000000 0.333333
vt -0.000000 0.500000
vt 0.166667 0.500000
vt 0.166667 0.666667
vt -0.000000 0.666667
vt 0.166667 0.833333
vt -0.000000 0.833333
vt 0.166667 1.000000
vt -0.000000 1.000000
vt -0.000000 -0.000000
vt 0.166667 -0.000000
vt 0.166667 0.166667
vt -0.000000 0.166667
vt 0.166667 0.333333
vt -0.000000 0.333333
vt 0.333333 0.500000
vt 0.333333 1.000000
vt 0.333333 -0.000000
vt 0.333333 0.166667
vt 0.333333 0.333333
s 0
f 58/65/39 59/66/39 54/66/39 55/65/39
f 60/67/39 61/68/39 52/68/39 53/67/39
f 61/68/39 62/69/39 51/69/39 52/68/39
f 62/69/39 57/70/39 56/70/39 51/69/39
f 83/71/39 82/72/39 88/72/39 89/71/39
f 59/66/39 60/73/39 53/73/39 54/66/39
f 57/70/40 63/74/40 64/75/40 58/65/40
f 58/65/39 64/75/39 65/76/39 59/66/39
f 59/66/41 65/76/41 66/77/41 60/73/41
f 60/67/42 66/78/42 67/79/42 61/68/42
f 61/68/43 67/79/43 68/80/43 62/69/43
f 62/69/44 68/80/44 63/74/44 57/70/44
f 63/74/45 69/81/45 70/82/45 64/75/45
f 64/75/39 70/82/39 71/83/39 65/76/39
f 65/76/46 71/83/46 72/84/46 66/77/46
f 66/78/47 72/85/47 73/86/47 67/79/47
f 67/79/43 73/86/43 74/87/43 68/80/43
f 68/80/48 74/87/48 69/81/48 63/74/48
f 69/88/49 75/89/49 76/90/49 70/91/49
f 70/91/39 76/90/39 77/92/39 71/93/39
f 71/93/50 77/92/50 78/94/50 72/95/50
f 72/96/51 78/97/51 79/98/51 73/99/51
f 73/99/43 79/98/43 80/100/43 74/101/43
f 74/101/52 80/100/52 75/89/52 69/88/52
f 75/89/41 81/102/41 82/72/41 76/90/41
f 76/90/39 82/72/39 83/71/39 77/92/39
f 77/92/40 83/71/40 84/103/40 78/94/40
f 78/97/44 84/104/44 85/105/44 79/98/44
f 79/98/43 85/105/43 86/106/43 80/100/43
f 80/100/42 86/106/42 81/102/42 75/89/42
f 86/106/39 85/105/39 91/105/39 92/106/39
f 82/72/39 81/102/39 87/102/39 88/72/39
f 81/102/39 86/106/39 92/106/39 87/102/39
f 85/105/39 84/104/39 90/104/39 91/105/39
f 57/70/39 58/65/39 55/65/39 56/70/39
f 84/103/39 83/71/39 89/71/39 90/103/39
f 91/105/53 90/104/53 89/71/53 88/72/53 87/102/53 92/106/53
f 52/68/54 51/69/54 56/70/54 55/65/54 54/66/54 53/67/54
