# Blender 4.3.2
# www.blender.org
mtllib fireball_head.mtl
o Sphere
v -0.034227 0.872651 -0.258059
v 0.499336 0.897939 -1.179576
v -0.017232 0.000497 1.027625
v 0.541987 0.549045 0.078562
v 0.921738 0.492679 -1.179745
v 0.162961 0.259327 0.872717
v 0.447062 0.168008 0.657089
v 0.736626 -0.121370 0.132840
v 1.017862 -0.190061 -1.179590
v 0.638330 -0.834820 -1.180620
v 0.405842 -0.393985 0.572858
v -0.011402 -0.947945 -0.612828
v -0.062273 -0.703662 0.279890
v -0.382332 -0.959842 -1.180948
v -0.040174 -0.263705 0.894584
v -0.633767 -0.430046 0.064017
v -0.882941 -0.547104 -1.180402
v -1.043065 0.095081 -1.179090
v -0.434662 -0.059632 0.741961
v -0.764923 0.185532 0.016889
v -0.744318 0.720377 -1.179140
v -0.242214 0.519008 0.553149
v -0.165735 1.033475 -1.180862
vn 0.3668 0.8996 0.2370
vn 0.6818 0.7106 0.1739
vn 0.8967 0.2876 0.3365
vn 0.9701 0.1366 0.2007
vn 0.6502 -0.1590 0.7429
vn 0.2287 0.8719 0.4330
vn 0.3847 -0.8845 0.2640
vn 0.1214 -0.9909 -0.0585
vn 0.1756 -0.8035 0.5688
vn -0.5426 -0.6737 0.5017
vn -0.6237 -0.7567 0.1961
vn -0.9173 -0.1678 0.3611
vn -0.8885 0.4245 0.1745
vn -0.5531 0.4189 0.7201
vn 0.8196 -0.5270 0.2249
vn 0.1974 0.9701 0.1409
vn 0.5886 0.6274 0.5098
vn 0.9201 0.2886 0.2648
vn 0.6131 0.0452 0.7887
vn 0.8314 -0.1415 0.5373
vn -0.9513 -0.2122 0.2236
vn 0.4402 -0.4340 0.7860
vn 0.4060 -0.8721 0.2731
vn -0.3262 -0.9164 0.2322
vn -0.4941 -0.8315 0.2541
vn -0.5206 -0.6756 0.5220
vn -0.4919 -0.3571 0.7940
vn -0.4799 0.8466 0.2300
vn -0.7669 0.4148 0.4896
vn -0.7037 0.6530 0.2799
vn -0.2143 0.6071 0.7651
vt 0.751106 0.376250
vt 0.624706 0.470992
vt 0.673868 0.019053
vt 0.578151 0.018044
vt 0.550714 0.713321
vt 0.475638 0.479383
vt 0.465790 0.019209
vt 0.489588 0.988690
vt 0.378993 0.677427
vt 0.819931 0.672469
vt 0.658003 0.849847
vt 0.227694 0.564877
vt 0.240092 0.252623
vt 0.344566 0.025091
vt 0.198370 0.027807
vt 0.231395 0.867914
vt 0.042918 0.700768
vt 0.090247 0.472900
vt 0.070493 0.042826
vt 0.004378 0.485780
vt 0.958350 0.465851
vt 0.884286 0.059978
vt 0.972542 0.056877
vt 0.977543 0.754505
vt 0.830146 0.993298
vt 0.786694 0.031578
vt 0.003223 0.054730
vt 0.081051 0.993298
s 0
f 1/1/1 4/2/1 2/3/1
f 2/3/2 4/2/2 5/4/2
f 7/5/3 8/6/3 4/2/3
f 8/6/4 9/7/4 5/4/4
f 3/8/5 11/9/5 7/5/5
f 4/2/6 1/1/6 22/10/6 6/11/6
f 13/12/7 12/13/7 10/14/7
f 10/14/8 12/13/8 14/15/8
f 11/9/9 15/16/9 13/12/9
f 15/16/10 19/17/10 13/12/10
f 16/18/11 17/19/11 14/15/11
f 19/17/12 20/20/12 16/18/12
f 20/21/13 21/22/13 18/23/13
f 19/24/14 3/25/14 22/10/14
f 10/14/15 9/7/15 8/6/15 11/9/15
f 23/26/16 1/1/16 2/3/16
f 6/11/17 7/5/17 4/2/17
f 4/2/18 8/6/18 5/4/18
f 7/5/19 6/11/19 3/8/19
f 7/5/20 11/9/20 8/6/20
f 18/27/21 17/19/21 16/18/21 20/20/21
f 11/9/22 3/8/22 15/16/22
f 11/9/23 13/12/23 10/14/23
f 12/13/24 13/12/24 14/15/24
f 13/12/25 16/18/25 14/15/25
f 13/12/26 19/17/26 16/18/26
f 19/17/27 15/16/27 3/28/27
f 23/26/28 21/22/28 22/10/28 1/1/28
f 19/24/29 22/10/29 20/21/29
f 20/21/30 22/10/30 21/22/30
f 3/25/31 6/11/31 22/10/31
